<svg width="209" height="69" viewBox="0 0 209 69" fill="none" xmlns="http://www.w3.org/2000/svg">
<rect x="0.7" y="21.7" width="157.6" height="46.6" rx="6.3" fill="white"/>
<rect x="0.7" y="21.7" width="157.6" height="46.6" rx="6.3" stroke="#9B9B9B" stroke-width="1.4" stroke-dasharray="3 3"/>
<rect x="39.7" y="0.7" width="157.6" height="46.6" rx="6.3" fill="white"/>
<rect x="39.7" y="0.7" width="157.6" height="46.6" rx="6.3" stroke="#9B9B9B" stroke-width="1.4"/>
<rect x="59" y="13" width="25.5879" height="9.0297" rx="4.51485" fill="#526D7A" fill-opacity="0.15"/>
<rect x="59" y="26" width="42.6653" height="9.0297" rx="4.51485" fill="#526D7A" fill-opacity="0.15"/>
<path d="M199.57 26.7934H199.587V26.7768L199.587 23.4297V23.4131H199.57H196.223H196.207V23.4297V25.1285C196.207 25.8236 195.366 26.1718 194.875 25.6802L192.245 23.0507C191.94 22.7459 191.94 22.2519 192.245 21.9472L194.875 19.3176C195.366 18.8261 196.207 19.1742 196.207 19.8694V21.5703V21.5869H196.223H199.57H199.587V21.5703V18.2233V18.2067H199.57H197.869C197.174 18.2067 196.826 17.3663 197.318 16.8747L199.947 14.2451C200.252 13.9404 200.746 13.9404 201.051 14.2451L203.68 16.8747C204.172 17.3662 203.824 18.2067 203.128 18.2067H201.43H201.413V18.2233V21.5703V21.5869H201.43H204.777H204.793V21.5703V19.8716C204.793 19.1764 205.634 18.8283 206.125 19.3199L208.755 21.9494C209.06 22.2541 209.06 22.7482 208.755 23.0529L206.125 25.6824C205.634 26.174 204.793 25.8258 204.793 25.1307V23.4297V23.4131H204.777H201.43H201.413V23.4297V26.7767V26.7933H201.43H203.131C203.826 26.7933 204.174 27.6338 203.682 28.1254L201.053 30.7549C200.748 31.0596 200.254 31.0596 199.949 30.7549L197.32 28.1254C196.828 27.6338 197.176 26.7933 197.872 26.7934H199.57Z" fill="#9B9B9B" stroke="#9B9B9B" stroke-width="0.0332032"/>
</svg>
